<svg width="96" height="96" viewBox="0 0 96 96" fill="none" xmlns="http://www.w3.org/2000/svg">
<path d="M13.4062 73.5808C13.4062 78.4646 17.4106 82.423 22.35 82.423H73.8255C78.7657 82.423 82.7695 78.4641 82.7695 73.5808V22.6903C82.7695 17.8062 78.7652 13.8479 73.8257 13.8479H22.3503C17.4101 13.8479 13.4062 17.8068 13.4062 22.6901V73.5805V73.5808Z" fill="#563D7C"/>
<path d="M39.9503 42.6358V29.1295H51.839C52.9715 29.1295 54.0631 29.2238 55.1145 29.4126C56.1658 29.6012 57.0961 29.9379 57.9049 30.4234C58.7134 30.9088 59.3605 31.5828 59.8459 32.4452C60.331 33.3081 60.5739 34.4135 60.5739 35.761C60.5739 38.1875 59.8459 39.94 58.39 41.0182C56.9344 42.0967 55.0742 42.6358 52.8095 42.6358H39.9503ZM27.2524 19.2623V77.0086H55.2359C57.8241 77.0086 60.3448 76.6852 62.7981 76.0381C65.2514 75.391 67.4349 74.3936 69.3491 73.0457C71.2629 71.6978 72.7863 69.9587 73.9185 67.8292C75.0511 65.6993 75.617 63.1786 75.617 60.267C75.617 56.6544 74.7408 53.5677 72.9886 51.0068C71.2361 48.4454 68.5805 46.6527 65.0219 45.6282C67.61 44.3883 69.5648 42.7975 70.8859 40.8565C72.2066 38.9154 72.8672 36.4894 72.8672 33.5774C72.8672 30.8816 72.4223 28.6172 71.5327 26.7839C70.643 24.9509 69.3894 23.4815 67.7717 22.3762C66.1544 21.2708 64.2134 20.4754 61.9487 19.9903C59.6842 19.5049 57.1769 19.2623 54.4271 19.2623H27.2524ZM39.9503 67.1415V51.2895H53.78C56.5298 51.2895 58.7406 51.9229 60.4122 53.1903C62.0835 54.4574 62.9195 56.5735 62.9195 59.5391C62.9195 61.049 62.6632 62.2889 62.1509 63.2594C61.6387 64.2299 60.9513 64.9985 60.0885 65.5644C59.226 66.1307 58.2283 66.5349 57.0961 66.7778C55.9635 67.02 54.7777 67.1415 53.5374 67.1415H39.9503Z" fill="white"/>
</svg>
