<svg width="96" height="96" viewBox="0 0 96 96" fill="none" xmlns="http://www.w3.org/2000/svg">
<path d="M18.2399 80.5931L11.6011 6.72418H84.5744L77.9268 80.5814L48.0434 88.7975L18.2399 80.5931Z" fill="#1572B6"/>
<path d="M48.0874 83.1031L72.4377 76.3524L78.1661 12.1772H48.0874V83.1031Z" fill="#33A9DC"/>
<path d="M48.0874 39.3888H60.2775L61.1179 29.9556H48.0874V20.743H71.1859L70.9654 23.2138L68.7032 48.6013H48.0874V39.3888Z" fill="white"/>
<path d="M48.1439 63.3129L48.1022 63.3248L37.8435 60.553L37.1878 53.2062H27.9395L29.23 67.6703L48.0992 72.91L48.1439 72.898V63.3129Z" fill="#EBEBEB"/>
<path d="M59.4937 48.2109L58.385 60.547L48.1113 63.3188V72.9039L66.9955 67.6703L67.1356 66.1145L68.7361 48.2109H59.4937Z" fill="white"/>
<path d="M48.1206 20.743V29.9556H25.8686L25.6838 27.8842L25.2635 23.2138L25.043 20.743H48.1206ZM48.0878 39.3888V48.6013H37.9573L37.7725 46.5299L37.3552 41.8596L37.1347 39.3888H48.0878Z" fill="#EBEBEB"/>
</svg>
