<svg width="96" height="96" viewBox="0 0 96 96" fill="none" xmlns="http://www.w3.org/2000/svg">
<path fill-rule="evenodd" clip-rule="evenodd" d="M48.2256 14.4329C29.064 14.4329 13.5439 29.9529 13.5439 49.1145C13.5439 64.4611 23.4716 77.4234 37.2575 82.0187C38.9916 82.3222 39.6419 81.2817 39.6419 80.3713C39.6419 79.5476 39.5985 76.8165 39.5985 73.9119C30.8848 75.5159 28.6305 71.7876 27.9368 69.8368C27.5467 68.8397 25.8559 65.7617 24.382 64.938C23.1681 64.2877 21.434 62.6837 24.3386 62.6403C27.0698 62.597 29.0206 65.1548 29.6709 66.1952C32.7923 71.4408 37.7777 69.9668 39.7719 69.0564C40.0754 66.8021 40.9858 65.2848 41.9829 64.4178C34.2662 63.5507 26.2027 60.5594 26.2027 47.2937C26.2027 43.5221 27.5467 40.4007 29.7576 37.973C29.4108 37.106 28.1969 33.5511 30.1044 28.7824C30.1044 28.7824 33.009 27.872 39.6419 32.3373C42.4164 31.5569 45.3644 31.1668 48.3123 31.1668C51.2602 31.1668 54.2082 31.5569 56.9827 32.3373C63.6156 27.8286 66.5202 28.7824 66.5202 28.7824C68.4276 33.5511 67.2138 37.106 66.867 37.973C69.0779 40.4007 70.4218 43.4787 70.4218 47.2937C70.4218 60.6028 62.315 63.5507 54.5983 64.4178C55.8555 65.5016 56.9394 67.5825 56.9394 70.8339C56.9394 75.4726 56.896 79.2008 56.896 80.3713C56.896 81.2817 57.5463 82.3655 59.2804 82.0187C66.1652 79.6942 72.1478 75.2693 76.3861 69.3668C80.6245 63.4642 82.9052 56.3811 82.9072 49.1145C82.9072 29.9529 67.3872 14.4329 48.2256 14.4329Z" fill="white"/>
</svg>
