<svg width="96" height="97" viewBox="0 0 96 97" fill="none" xmlns="http://www.w3.org/2000/svg">
<path d="M88.0459 44.6997L51.9108 8.56652C49.8311 6.48548 46.4559 6.48548 44.3735 8.56652L36.8699 16.0701L46.3886 25.5889C48.6006 24.8414 51.1372 25.3428 52.9004 27.1061C54.672 28.8806 55.1699 31.4389 54.4044 33.6579L63.5778 42.8317C65.7972 42.0671 68.358 42.5617 70.1306 44.3373C72.608 46.8137 72.608 50.8274 70.1306 53.3054C67.6526 55.7838 63.6389 55.7838 61.1596 53.3054C59.2961 51.44 58.8357 48.7033 59.7791 46.4076L51.2241 37.8527L51.2232 60.3658C51.8433 60.6725 52.4097 61.0775 52.9004 61.5652C55.3778 64.0417 55.3778 68.0557 52.9004 70.5357C50.4224 73.0127 46.4067 73.0127 43.9323 70.5357C41.4549 68.0557 41.4549 64.042 43.9323 61.5656C44.5259 60.9716 45.2315 60.5012 46.0081 60.1815V37.4586C45.2304 37.1411 44.5244 36.6704 43.9323 36.0746C42.0552 34.2001 41.6039 31.446 42.5657 29.1412L33.1824 19.757L8.40526 44.5325C6.32325 46.6155 6.32325 49.991 8.40526 52.0724L44.541 88.2062C46.6214 90.2876 49.9959 90.2876 52.0789 88.2062L88.0456 52.2402C90.127 50.1582 90.127 46.7807 88.0456 44.6997" fill="#DE4C36"/>
</svg>
