<svg width="96" height="91" viewBox="0 0 96 91" fill="none" xmlns="http://www.w3.org/2000/svg">
<path d="M18.2399 78.4947L11.5981 4.005H84.5774L77.9268 78.4828L48.0434 86.768L18.2399 78.4947Z" fill="#E44F26"/>
<path d="M48.0874 78.9763L72.4377 72.5603L78.1661 11.5674H48.0874V78.9763Z" fill="#F1662A"/>
<path d="M48.0878 38.0413H35.8977L35.0572 29.0759H48.0878V20.3202H24.9893L25.2098 22.6713L27.472 46.7971H48.0878V38.0413ZM48.0878 60.7791L48.046 60.7904L37.7873 58.1589L37.1316 51.1764H27.8833L29.1738 64.9205L48.046 69.9003L48.0878 69.889V60.7791Z" fill="#EBEBEB"/>
<path d="M48.0552 38.0413V46.7971H59.3988L58.3318 58.1532L48.0552 60.7876V69.8974L66.9423 64.9205L67.0794 63.4418L69.2432 40.3924L69.4697 38.0413H48.0552ZM48.0552 20.3202V29.0759H70.3072L70.492 27.1101L70.9123 22.6713L71.1328 20.3202H48.0552Z" fill="white"/>
</svg>
