<svg width="92" height="91" viewBox="0 0 92 91" fill="none" xmlns="http://www.w3.org/2000/svg">
<path d="M4.84375 4.12842H87.6068V86.8914H4.84375V4.12842Z" fill="#F5DE19"/>
<path d="M59.8479 67.8171C60.5236 69.1898 61.5736 70.3436 62.8766 71.1455C64.1797 71.9474 65.6828 72.3647 67.2128 72.3494C70.3004 72.3494 72.2747 70.8056 72.2747 68.6669C72.2747 66.1175 70.2466 65.2054 66.8474 63.7182L64.9835 62.9194C59.6014 60.6278 56.0323 57.7583 56.0323 51.6907C56.0323 46.1019 60.2812 41.8444 66.9465 41.8444C69.1042 41.6886 71.2599 42.1715 73.1449 43.2329C75.0299 44.2943 76.5607 45.8871 77.5463 47.8128L71.7195 51.5378C71.34 50.583 70.6792 49.766 69.8247 49.1954C68.9703 48.6247 67.9626 48.3273 66.9352 48.3425C66.4869 48.2977 66.0343 48.3467 65.606 48.4864C65.1777 48.6261 64.7833 48.8535 64.4478 49.1542C64.1123 49.4548 63.8431 49.8219 63.6573 50.2323C63.4715 50.6427 63.3733 51.0873 63.3689 51.5378C63.3689 53.7728 64.754 54.6792 67.9521 56.07L69.816 56.8689C76.1498 59.5854 79.7303 62.3529 79.7303 68.5763C79.7303 75.2868 74.4587 78.9636 67.3799 78.9636C64.6217 79.1394 61.8717 78.5132 59.4615 77.1606C57.0514 75.808 55.0842 73.7868 53.7973 71.3409L59.8479 67.8171ZM33.5182 68.4629C34.6881 70.5393 35.7532 72.2955 38.3139 72.2955C40.7614 72.2955 42.308 71.3381 42.308 67.6131V42.2693H49.7607V67.7123C49.7607 75.4285 45.2285 78.941 38.6312 78.941C36.2992 79.0684 33.9832 78.4873 31.9877 77.2739C29.9922 76.0605 28.4105 74.2717 27.4507 72.1426L33.5182 68.4629Z" fill="black"/>
</svg>
