<svg width="96" height="96" viewBox="0 0 96 96" fill="none" xmlns="http://www.w3.org/2000/svg">
<path d="M76.7828 33.8967C75.835 33.5704 74.8792 33.268 73.9162 32.99C74.0779 32.3265 74.2269 31.6711 74.3591 31.0273C76.5292 20.4541 75.1105 11.9362 70.2647 9.1317C65.6185 6.44311 58.0201 9.24657 50.3462 15.9495C49.5899 16.6113 48.8504 17.2922 48.1284 17.9915C47.645 17.5265 47.1531 17.0705 46.653 16.6238C38.6103 9.45677 30.5489 6.43613 25.7082 9.24867C21.0662 11.9456 19.6917 19.9531 21.6455 29.9735C21.8399 30.9659 22.0594 31.9532 22.3037 32.9344C21.1626 33.2599 20.0615 33.6062 19.0077 33.975C9.57837 37.2746 3.55664 42.4454 3.55664 47.809C3.55664 53.3485 10.0212 58.9048 19.8424 62.2739C20.6386 62.5459 21.4414 62.798 22.2501 63.0299C21.9875 64.0867 21.7543 65.1507 21.5509 66.2206C19.6882 76.0671 21.1428 83.8853 25.7722 86.5651C30.5537 89.3326 38.579 86.4883 46.3931 79.6324C47.0267 79.075 47.6464 78.5019 48.2515 77.9135C49.0335 78.6707 49.8362 79.4058 50.659 80.1181C58.2285 86.6552 65.7041 89.2949 70.329 86.6077C75.106 83.8322 76.6586 75.4333 74.6429 65.215C74.4841 64.4144 74.3061 63.6178 74.1089 62.8259C74.6725 62.6583 75.2257 62.4859 75.7649 62.3064C85.975 58.9114 92.618 53.4225 92.618 47.809C92.618 42.4258 86.4018 37.2201 76.7828 33.8967ZM74.5685 58.682C74.0814 58.8437 73.5818 58.9998 73.0725 59.1517C71.9453 55.5703 70.4243 51.7622 68.5628 47.8275C70.3391 43.9866 71.8017 40.2271 72.8972 36.6691C73.8083 36.9338 74.6923 37.2128 75.5447 37.5071C83.7863 40.3549 88.8134 44.5648 88.8134 47.809C88.8134 51.2643 83.3842 55.7501 74.5685 58.682ZM70.9107 65.9566C71.802 70.4748 71.929 74.5601 71.3386 77.7539C70.8084 80.6237 69.7418 82.5368 68.4226 83.3032C65.6161 84.9338 59.6138 82.8144 53.1405 77.2235C52.3753 76.5613 51.6285 75.8778 50.9011 75.1739C53.4108 72.4193 55.9188 69.2171 58.3666 65.6605C62.6722 65.2771 66.7398 64.65 70.4285 63.7942C70.6062 64.5111 70.767 65.2321 70.9107 65.9566ZM33.9196 83.0214C31.1775 83.9932 28.9934 84.0211 27.6731 83.2571C24.8639 81.6311 23.696 75.3534 25.289 66.9329C25.4784 65.9378 25.6952 64.9482 25.9392 63.9653C29.5873 64.7753 33.6253 65.3578 37.9409 65.709C40.4054 69.1892 42.9858 72.3879 45.5863 75.1889C45.0337 75.7256 44.4679 76.2486 43.8896 76.7574C40.434 79.7888 36.9714 81.9397 33.9196 83.0214ZM21.0732 58.6607C16.7304 57.1708 13.144 55.2347 10.6857 53.1219C8.47659 51.2235 7.36158 49.3383 7.36158 47.809C7.36158 44.554 12.1963 40.4024 20.2602 37.5808C21.2388 37.2386 22.263 36.9156 23.3258 36.6126C24.4405 40.2509 25.9024 44.0551 27.6665 47.9018C25.8794 51.8055 24.3967 55.6705 23.2712 59.3517C22.533 59.1395 21.8001 58.9091 21.0732 58.6607ZM25.3795 29.2399C23.7057 20.6549 24.8173 14.1789 27.6147 12.5535C30.5941 10.8224 37.1825 13.2906 44.1269 19.4793C44.5797 19.8837 45.0252 20.2964 45.4632 20.7171C42.8755 23.5059 40.3188 26.6808 37.8762 30.1404C33.6876 30.5301 29.6781 31.1558 25.9918 31.9941C25.7646 31.0815 25.5605 30.1632 25.3795 29.2402V29.2399ZM63.7966 38.761C62.9259 37.2515 62.0229 35.761 61.0882 34.2906C63.9298 34.6513 66.6525 35.13 69.2091 35.7152C68.4417 38.1845 67.485 40.7659 66.3588 43.4126C65.5357 41.8451 64.6814 40.2942 63.7966 38.761ZM48.1301 23.4462C49.8849 25.3544 51.6425 27.4846 53.3712 29.7961C49.8644 29.6299 46.3517 29.6292 42.8449 29.794C44.5753 27.5038 46.3479 25.3764 48.1301 23.4462ZM32.3631 38.7872C31.4893 40.3081 30.651 41.8493 29.8489 43.4095C28.7412 40.7722 27.7932 38.1789 27.0191 35.6747C29.5601 35.1042 32.2699 34.6377 35.0934 34.2836C34.1483 35.763 33.238 37.2645 32.3631 38.7868V38.7872ZM35.1745 61.606C32.2574 61.2791 29.5069 60.8367 26.9666 60.2816C27.7528 57.7326 28.7217 55.0842 29.8534 52.3904C30.6587 53.9517 31.5005 55.4938 32.3781 57.0155C33.2805 58.5797 34.215 60.1119 35.1745 61.606ZM48.2352 72.4406C46.4317 70.4881 44.6331 68.3278 42.8765 66.0044C44.5819 66.0715 46.3204 66.1057 48.0873 66.1057C49.9027 66.1057 51.6971 66.0648 53.4634 65.9859C51.7291 68.3512 49.9781 70.5146 48.2352 72.4406ZM66.3947 52.2528C67.5852 54.9763 68.5885 57.6108 69.3852 60.1161C66.8031 60.7075 64.0151 61.1838 61.0774 61.5375C62.0188 60.0398 62.9303 58.5234 63.8115 56.9893C64.7075 55.4299 65.5687 53.8507 66.3947 52.2528ZM60.5159 55.0814C59.1668 57.4335 57.7419 59.741 56.2434 62.0002C53.529 62.1931 50.8086 62.289 48.0873 62.2875C45.3156 62.2875 42.6198 62.2009 40.0238 62.0319C38.4862 59.778 37.0341 57.4665 35.6706 55.1024H35.6709C34.3138 52.7508 33.0462 50.3483 31.8709 47.9001C33.0433 45.4513 34.307 43.0477 35.6594 40.6943L35.6591 40.6947C37.011 38.3407 38.4515 36.039 39.9775 33.7948C42.6261 33.5937 45.3421 33.4889 48.087 33.4889H48.0873C50.8448 33.4889 53.5643 33.5947 56.2121 33.7972C57.7227 36.0381 59.154 38.3318 60.5034 40.6741C61.8603 43.0223 63.1408 45.4142 64.3428 47.846C63.1531 50.3026 61.8767 52.716 60.5159 55.0814ZM68.3645 12.4397C71.3466 14.166 72.5065 21.1273 70.6327 30.2563C70.5131 30.8387 70.3788 31.432 70.2327 32.0336C66.5373 31.1774 62.525 30.5409 58.3242 30.1453C55.8771 26.6477 53.3413 23.4678 50.7957 20.715C51.4628 20.0695 52.1459 19.4408 52.8441 18.8295C59.4194 13.0867 65.5646 10.8192 68.3645 12.4397ZM48.0873 39.827C52.4795 39.827 56.0402 43.4007 56.0402 47.809C56.0402 52.2172 52.4795 55.7909 48.0873 55.7909C43.6951 55.7909 40.1344 52.2172 40.1344 47.809C40.1344 43.4007 43.6951 39.827 48.0873 39.827Z" fill="#00D8FF"/>
</svg>
