<svg width="96" height="96" viewBox="0 0 96 96" fill="none" xmlns="http://www.w3.org/2000/svg">
<path d="M64.1772 63.3366C67.229 63.0206 69.5442 60.3898 69.4389 57.2324C69.3339 54.0753 66.7028 51.5495 63.5457 51.5495H63.3354C60.0727 51.6548 57.5472 54.3909 57.6525 57.6533C57.7578 59.232 58.389 60.6001 59.3362 61.5473C55.7582 68.5986 50.2859 73.7553 42.0774 78.0701C36.4998 81.0169 30.7119 82.0694 24.9239 81.3328C20.1882 80.7013 16.5048 78.5967 14.1893 75.1234C10.8219 69.9667 10.5063 64.3887 13.3478 58.8111C15.3474 54.8119 18.5041 51.8651 20.5038 50.3917C20.0828 49.0236 19.4513 46.7084 19.1357 45.0247C3.87622 56.0749 5.45492 71.0191 10.0854 78.0701C13.5581 83.3325 20.6091 86.5949 28.3966 86.5949C30.5012 86.5949 32.6058 86.3842 34.7108 85.8583C48.1812 83.2272 58.3893 75.2287 64.1772 63.3366ZM82.6991 50.2867C74.7009 40.9201 62.9145 35.7634 49.444 35.7634H47.7603C46.8132 33.8691 44.8135 32.606 42.6036 32.606H42.393C39.1309 32.7114 36.6054 35.4475 36.7104 38.7102C36.8157 41.8673 39.4465 44.3932 42.6036 44.3932H42.8139C45.1292 44.2878 47.1288 42.8144 47.9706 40.8148H49.8649C57.8631 40.8148 65.44 43.1301 72.2807 47.6555C77.5424 51.1285 81.331 55.654 83.4356 61.1263C85.2246 65.5465 85.1193 69.8614 83.225 73.545C80.2786 79.1226 75.3325 82.1747 68.8077 82.1747C64.5982 82.1747 60.5993 80.9116 58.4943 79.9644C57.3369 81.0169 55.2319 82.7006 53.7585 83.7534C58.284 85.858 62.9145 87.0158 67.3343 87.0158C77.4371 87.0158 84.909 81.4378 87.7505 75.8602C90.8023 69.756 90.5916 59.232 82.6991 50.2867ZM29.2385 65.1253C29.3438 68.2827 31.9746 70.8082 35.1317 70.8082H35.3423C38.6047 70.7032 41.1302 67.9667 41.0249 64.7043C40.9199 61.5469 38.2888 59.0214 35.1317 59.0214H34.9214C34.7108 59.0214 34.3948 59.0214 34.1849 59.1264C29.87 51.9701 28.081 44.1825 28.7126 35.7631C29.1332 29.4486 31.2381 23.976 34.9214 19.4505C37.9732 15.5566 43.8664 13.6623 47.8656 13.5573C59.0205 13.3467 63.756 27.2384 64.0719 32.8163C65.44 33.132 67.7552 33.8688 69.3339 34.395C68.0709 17.3462 57.5472 8.50592 47.4447 8.50592C37.9732 8.50592 29.2385 15.3466 25.7655 25.4497C20.9247 38.9205 24.0818 51.8651 29.975 62.0735C29.4491 62.81 29.1332 63.9678 29.2385 65.1256V65.1253Z" fill="#764ABC"/>
</svg>
