<svg width="97" height="97" viewBox="0 0 97 97" fill="none" xmlns="http://www.w3.org/2000/svg">
<path d="M81.658 53.6291C78.4499 53.6456 75.6614 54.4117 73.3268 55.5442C72.4698 53.862 71.6132 52.3634 71.4623 51.264C71.294 49.9818 71.0927 49.1989 71.294 47.6667C71.4958 46.1345 72.4028 43.9526 72.3859 43.7861C72.3693 43.6197 72.1842 42.8368 70.3366 42.8204C68.489 42.8036 66.8932 43.17 66.7084 43.6529C66.5236 44.1358 66.1709 45.2351 65.9357 46.3673C65.6166 48.0331 62.2406 53.9784 60.309 57.0929C59.6873 55.8775 59.1498 54.8113 59.0321 53.962C58.8642 52.6798 58.6625 51.8969 58.8642 50.3647C59.0659 48.8325 59.973 46.6509 59.956 46.4841C59.9391 46.3177 59.7543 45.5348 57.9067 45.5184C56.0588 45.5016 54.463 45.868 54.2786 46.3509C54.0938 46.8341 53.892 47.9663 53.5059 49.0657C53.1194 50.165 48.6346 60.0913 47.4588 62.6557C46.9837 63.6937 46.4852 64.721 45.9639 65.7369C45.9639 65.7369 45.947 65.7869 45.8965 65.8701C45.7327 66.1887 45.5649 66.5052 45.3929 66.8195V66.8359C45.1408 67.2859 44.8721 67.702 44.7377 67.702C44.6368 67.702 44.452 66.503 44.7712 64.8708C45.443 61.4235 47.0388 56.0607 47.0222 55.8775C47.0222 55.7775 47.3245 54.8449 45.9808 54.3617C44.6703 53.8788 44.2002 54.6781 44.0825 54.6781C43.965 54.6781 43.8807 54.9614 43.8807 54.9614C43.8807 54.9614 45.3425 48.9325 41.0926 48.9325C38.4388 48.9325 34.7768 51.8137 32.9627 54.4117C30.9005 55.5244 28.84 56.6403 26.7813 57.7594C25.7907 58.309 24.7659 58.8587 23.8084 59.3748C23.741 59.3084 23.674 59.2248 23.6067 59.1584C18.4667 53.7124 8.95965 49.865 9.36274 42.5539C9.51403 39.8891 10.4376 32.8941 27.6214 24.4004C41.7644 17.4887 53.0189 19.4038 54.9673 23.6508C57.7554 29.7132 48.9372 40.9717 34.3233 42.6036C28.7467 43.22 25.8238 41.0881 25.085 40.2888C24.3123 39.4559 24.1946 39.4059 23.9089 39.5727C23.4388 39.8227 23.741 40.572 23.9089 41.0049C24.3458 42.1371 26.143 44.1358 29.1833 45.1187C31.8709 45.9844 38.405 46.4677 46.3166 43.4365C55.1687 40.0388 62.0893 30.5958 60.0569 22.685C58.0242 14.6574 44.5864 12.0094 31.8709 16.4893C24.3123 19.1545 16.1151 23.3511 10.2193 28.8139C3.21482 35.3089 2.10605 40.9549 2.55957 43.32C4.18922 51.7137 15.8633 57.1765 20.5329 61.2235C20.2977 61.3567 20.079 61.4735 19.8946 61.5735C17.5596 62.7225 8.65706 67.3356 6.43989 72.2155C3.9205 77.7447 6.84334 81.7088 8.77486 82.2414C14.7715 83.8904 20.936 80.9259 24.245 76.0293C27.554 71.1329 27.1509 64.7708 25.6225 61.8564C25.6055 61.8231 25.589 61.7896 25.5551 61.7564C26.1599 61.4067 26.7813 61.0402 27.3861 60.6906C28.4977 60.039 29.6234 59.4115 30.7625 58.8083C30.1912 60.3574 29.7712 62.206 29.5698 64.8708C29.3176 68.002 30.6108 72.0655 32.3075 73.6641C33.0636 74.3642 33.9537 74.3806 34.525 74.3806C36.507 74.3806 37.3974 72.7484 38.3884 70.8165C39.5977 68.4517 40.6895 65.7037 40.6895 65.7037C40.6895 65.7037 39.329 73.1316 43.0245 73.1316C44.3681 73.1316 45.7287 71.3994 46.3335 70.5168V70.5333C46.3335 70.5333 46.367 70.4832 46.4343 70.3668C46.5687 70.1504 46.6526 70.0168 46.6526 70.0168V69.9839C47.1901 69.051 48.3997 66.9359 50.1969 63.4218C52.5149 58.8919 54.749 53.2295 54.749 53.2295C54.749 53.2295 54.9507 54.6117 55.6391 56.91C56.0426 58.259 56.8819 59.7412 57.5541 61.1735C57.0166 61.9231 56.6805 62.3392 56.6805 62.3392L56.6975 62.356C56.2605 62.9221 55.7904 63.5382 55.2695 64.1383C53.4385 66.303 51.2552 68.7849 50.9526 69.5007C50.5996 70.35 50.6839 70.9665 51.3561 71.4662C51.8431 71.8326 52.7163 71.8823 53.6067 71.8326C55.253 71.7158 56.4118 71.3162 56.9827 71.0665C57.8732 70.75 58.9146 70.2668 59.8887 69.5507C61.6862 68.2349 62.7777 66.353 62.6772 63.8718C62.6267 62.506 62.1732 61.1403 61.6188 59.8577C61.787 59.6248 61.938 59.3916 62.1062 59.1584C64.9448 55.0446 67.1454 50.5311 67.1454 50.5311C67.1454 50.5311 67.3471 51.9133 68.0355 54.212C68.3716 55.3778 69.0603 56.6436 69.6647 57.8758C66.9941 60.0245 65.3478 62.5225 64.76 64.1547C63.702 67.1859 64.5247 68.5514 66.087 68.8678C66.7923 69.0178 67.8002 68.6846 68.5394 68.3681C69.48 68.0685 70.5887 67.5524 71.6471 66.7859C73.4446 65.4705 75.1744 63.6382 75.0735 61.157C75.0231 60.0245 74.7208 58.9084 74.3008 57.8258C76.5684 56.8936 79.4913 56.3771 83.2199 56.81C91.2158 57.7426 92.7947 62.6889 92.4921 64.7712C92.1898 66.8527 90.5101 67.9853 89.9561 68.3349C89.4014 68.6849 89.2169 68.8014 89.2673 69.051C89.3344 69.4175 89.6031 69.401 90.0735 69.3343C90.7288 69.2178 94.273 67.652 94.4239 63.8215C94.6761 58.9251 89.9727 53.5791 81.658 53.6291ZM19.9785 74.2474C17.3244 77.1118 13.6292 78.1944 12.0334 77.2786C10.3202 76.2957 10.992 72.0655 14.2506 69.0346C16.2325 67.1859 18.7858 65.4701 20.4825 64.4211C20.8686 64.1879 21.4399 63.855 22.1287 63.4386C22.2461 63.3718 22.3135 63.3386 22.3135 63.3386L22.7166 63.0886C23.9089 67.4188 22.767 71.2329 19.9785 74.2474ZM39.2955 61.2235C38.3715 63.4554 36.44 69.1678 35.2642 68.8514C34.2563 68.5849 33.6346 64.2547 35.0625 59.9745C35.7847 57.8258 37.3131 55.261 38.2036 54.262C39.6481 52.663 41.2439 52.1298 41.6301 52.7798C42.1174 53.6291 39.8664 59.8245 39.2955 61.2235ZM55.236 68.7846C54.8495 68.9846 54.4803 69.1178 54.3121 69.0178C54.1946 68.951 54.4803 68.6846 54.4803 68.6846C54.4803 68.6846 56.4792 66.553 57.2684 65.5869C57.7223 65.0208 58.2594 64.3547 58.8307 63.605V63.8215C58.8307 66.3698 56.3444 68.0853 55.2357 68.7846H55.236ZM67.5315 66.0034C67.2459 65.8034 67.2963 65.1373 68.2538 63.0554C68.6234 62.2392 69.4965 60.8738 70.9918 59.558C71.1597 60.0909 71.2775 60.6074 71.2605 61.0903C71.2436 64.3047 68.9259 65.5037 67.5315 66.0034Z" fill="#CD6799"/>
</svg>
