<svg width="96" height="96" viewBox="0 0 96 96" fill="none" xmlns="http://www.w3.org/2000/svg">
<path d="M25.6377 39.1004C28.6494 27.0538 36.1785 21.0305 48.2251 21.0305C66.295 21.0305 68.5538 34.583 77.5887 36.8417C83.612 38.3475 88.8824 36.0888 93.3999 30.0655C90.3883 42.1121 82.8591 48.1354 70.8125 48.1354C52.7426 48.1354 50.4838 34.583 41.4489 32.3242C35.4256 30.8184 30.1552 33.0771 25.6377 39.1004ZM3.05029 66.2053C6.06195 54.1587 13.5911 48.1354 25.6377 48.1354C43.7076 48.1354 45.9664 61.6878 55.0013 63.9466C61.0246 65.4524 66.295 63.1937 70.8125 57.1704C67.8009 69.217 60.2717 75.2403 48.2251 75.2403C30.1552 75.2403 27.8964 61.6878 18.8615 59.4291C12.8382 57.9233 7.56777 60.182 3.05029 66.2053Z" fill="#44A8B3"/>
</svg>
