<svg width="96" height="96" viewBox="0 0 96 96" fill="none" xmlns="http://www.w3.org/2000/svg">
<path d="M83.9791 17.9954L68.0721 10.337C67.1738 9.90389 66.1629 9.76096 65.1797 9.92803C64.1966 10.0951 63.2897 10.5639 62.5849 11.2695L10.5132 58.7424C9.88137 59.3156 9.50319 60.1164 9.4618 60.9685C9.42041 61.8206 9.7192 62.6542 10.2925 63.286C10.3614 63.3605 10.4304 63.4323 10.5049 63.4985L14.7561 67.3607C15.3117 67.8663 16.0267 68.1614 16.7771 68.1946C17.5275 68.2279 18.2659 67.9973 18.8639 67.5428L81.5845 19.9817C82.0583 19.6222 82.6229 19.4021 83.215 19.3461C83.8071 19.2901 84.403 19.4005 84.9357 19.6649C85.4684 19.9292 85.9168 20.337 86.2303 20.8424C86.5438 21.3477 86.7101 21.9306 86.7103 22.5253V22.3404C86.7103 21.4325 86.4539 20.5431 85.9707 19.7744C85.4876 19.0057 84.7972 18.3891 83.9791 17.9954Z" fill="#0065A9"/>
<path d="M83.9791 78.5226L68.0721 86.1837C67.1735 86.6156 66.163 86.7579 65.1801 86.5909C64.1972 86.4238 63.2904 85.9558 62.5849 85.2513L10.5132 37.7756C9.88137 37.2024 9.50319 36.4016 9.4618 35.5495C9.42041 34.6974 9.7192 33.8638 10.2925 33.232C10.3614 33.1575 10.4304 33.0857 10.5049 33.0195L14.7561 29.1573C15.3122 28.6495 16.0289 28.3532 16.7812 28.3199C17.5334 28.2866 18.2735 28.5185 18.8722 28.9752L81.5845 76.5363C82.0583 76.8958 82.6229 77.1159 83.215 77.1719C83.8071 77.2279 84.403 77.1175 84.9357 76.8531C85.4684 76.5888 85.9168 76.181 86.2303 75.6756C86.5438 75.1703 86.7101 74.5874 86.7103 73.9927V74.1914C86.7073 75.0969 86.4496 75.9832 85.9667 76.7492C85.4837 77.5151 84.7949 78.1297 83.9791 78.5226Z" fill="#007ACC"/>
<path d="M68.072 86.1838C67.1734 86.6157 66.1628 86.7579 65.1799 86.5909C64.197 86.4239 63.2902 85.9558 62.5848 85.2513C62.9809 85.6423 63.4837 85.9077 64.03 86.0142C64.5764 86.1207 65.142 86.0636 65.656 85.85C66.1701 85.6365 66.6096 85.2759 66.9197 84.8136C67.2297 84.3513 67.3964 83.8078 67.3988 83.2512V13.2668C67.3993 12.7076 67.2337 12.1608 66.9232 11.6957C66.6126 11.2306 66.171 10.8682 65.6543 10.6543C65.1376 10.4404 64.569 10.3847 64.0206 10.4942C63.4722 10.6037 62.9687 10.8735 62.5737 11.2695C63.2787 10.5642 64.1853 10.0953 65.1684 9.92777C66.1514 9.76023 67.1621 9.90227 68.0609 10.3342L83.9652 17.9815C84.7859 18.3733 85.4791 18.9891 85.9648 19.7579C86.4505 20.5267 86.7089 21.4172 86.7102 22.3266V74.1914C86.7104 75.1001 86.4539 75.9903 85.9702 76.7596C85.4865 77.5288 84.7953 78.1457 83.9762 78.5392L68.072 86.1838Z" fill="#1F9CF0"/>
</svg>
