<svg width="30" height="31" viewBox="0 0 30 31" fill="none" xmlns="http://www.w3.org/2000/svg">
<path d="M15.0001 1.1C7.0471 1.1 0.600098 7.547 0.600098 15.5C0.600098 23.453 7.0471 29.9 15.0001 29.9C22.9531 29.9 29.4001 23.453 29.4001 15.5C29.4001 7.547 22.9531 1.1 15.0001 1.1ZM11.4751 21.4685H8.5591V12.0845H11.4751V21.4685ZM9.9991 10.9325C9.0781 10.9325 8.4826 10.28 8.4826 9.473C8.4826 8.6495 9.0961 8.0165 10.0366 8.0165C10.9771 8.0165 11.5531 8.6495 11.5711 9.473C11.5711 10.28 10.9771 10.9325 9.9991 10.9325ZM22.1251 21.4685H19.2091V16.268C19.2091 15.0575 18.7861 14.2355 17.7316 14.2355C16.9261 14.2355 16.4476 14.792 16.2361 15.3275C16.1581 15.518 16.1386 15.788 16.1386 16.0565V21.467H13.2211V15.077C13.2211 13.9055 13.1836 12.926 13.1446 12.083H15.6781L15.8116 13.3865H15.8701C16.2541 12.7745 17.1946 11.8715 18.7681 11.8715C20.6866 11.8715 22.1251 13.157 22.1251 15.92V21.4685Z" fill="#A7A7A7"/>
</svg>
